<svg xmlns="http://www.w3.org/2000/svg" viewBox="0 0 805.29 188.46"><defs><style>.cls-1{fill:#316094;}.cls-2{fill:#ff6d70;}</style></defs><title>LinkerAsset 5</title><g id="Layer_2" data-name="Layer 2"><g id="Layer_1-2" data-name="Layer 1"><path class="cls-1" d="M36.64,0H82a.8.8,0,0,1,.77,1L48,139.38a8.55,8.55,0,0,0,1.76,6.47,7.3,7.3,0,0,0,6.12,2.81h56.43a.79.79,0,0,1,.77,1l-9.45,38.21a.78.78,0,0,1-.77.61H39.4Q20,188.46,8.53,173.7T1,139.38L35.88.6A.78.78,0,0,1,36.64,0Z"/><path class="cls-1" d="M297.15,83.64l-29.83,0a.8.8,0,0,0-.78.61l-26,103.58a.8.8,0,0,1-.78.61H194.56a.8.8,0,0,1-.78-1L219.84,83.7A52.48,52.48,0,0,1,270.78,44l36.52,0a56.51,56.51,0,0,1,54.76,70.27L343.6,187.86a.78.78,0,0,1-.77.6H297.64a.79.79,0,0,1-.77-1l19.87-78.72A20.18,20.18,0,0,0,297.15,83.64Z"/><path class="cls-1" d="M161.48,44.1a36.33,36.33,0,0,1,35.35,45.17l-24.75,98.58a.78.78,0,0,1-.77.61H126a.79.79,0,0,1-.77-1l23.57-93.8a8.08,8.08,0,0,0-7.83-10H130.76a.8.8,0,0,1-.77-1l9.52-37.9a.79.79,0,0,1,.77-.6Z"/><path class="cls-1" d="M663.57,150.63l-8.78,37.22a.78.78,0,0,1-.77.61H576q-29.25,0-42.06-14c-8.53-9.33-13.7-20.46-13.88-33.4,0-27.66,8.29-50.43,26.48-68.28s40.27-27.37,66.24-28.48c3.89-.17,24.71,0,24.81,0s53.49,0,40,50.77c-.55,2.06-3.19,12.27-3.19,12.36s-8.23,29.69-40,29.69H595.51a15.59,15.59,0,0,1-5.78-1,12.7,12.7,0,0,1-7.8-8.75c-1.59-5.49.11-11.07,3.54-16.74a21.46,21.46,0,0,1,10.33-8.54,28.54,28.54,0,0,1,12-2.5h17.39a12.12,12.12,0,0,0,11.7-9c.63-2.36,1.2-4.56,1.49-5.8a.79.79,0,0,0-.77-1H608c-10,0-19.52,2.65-26.83,7.94a40.47,40.47,0,0,0-13.7,17.34,55.74,55.74,0,0,0-3.87,16c-.5,5.39.89,12.73,4,17.32,5.7,8.35,12.72,7.5,24.82,7.5l70.37-.28A.81.81,0,0,1,663.57,150.63Z"/><path class="cls-1" d="M764.69,83.87a20.18,20.18,0,0,0-19.88,15.35L723,187.86a.79.79,0,0,1-.77.6H676.66a.79.79,0,0,1-.77-1l23.24-93.12c7.31-29.15,30.17-50,63.4-50l42,0a.8.8,0,0,1,.77,1L795.44,83.7a.79.79,0,0,1-.78.6Z"/><path class="cls-1" d="M455.34,168.39,430,121a.8.8,0,0,0-1.49.18l-16.76,66.72a.81.81,0,0,1-.79.61H366.09a.8.8,0,0,1-.78-1L412.11.61a.8.8,0,0,1,.78-.61h45a.8.8,0,0,1,.78,1L437,87.14a.81.81,0,0,0,1.29.82l44-35.53A37.93,37.93,0,0,1,506.19,44h47.33a.81.81,0,0,1,.51,1.44L473.82,110.2a.83.83,0,0,0-.18,1.06l47.32,76a.81.81,0,0,1-.69,1.23H488.81A37.92,37.92,0,0,1,455.34,168.39Z"/><path class="cls-2" d="M218.93,1a.79.79,0,0,0-.77-1L172.32,0h0A35.32,35.32,0,0,0,206.57,44h1.63Z"/></g></g></svg>